<svg width="40" height="40" viewBox="0 0 40 40" fill="none" xmlns="http://www.w3.org/2000/svg">
<path d="M32.9219 18.0619H6.48591C5.62441 18.0619 4.92603 18.7603 4.92603 19.6218V19.786C4.92603 20.6475 5.62441 21.3459 6.48591 21.3459H32.9219C33.7834 21.3459 34.4818 20.6475 34.4818 19.786V19.6218C34.4818 18.7603 33.7834 18.0619 32.9219 18.0619Z" fill="#E4E4E4"/>
<path d="M32.9219 26.2718H6.48591C5.62441 26.2718 4.92603 26.9702 4.92603 27.8317V27.9959C4.92603 28.8574 5.62441 29.5558 6.48591 29.5558H32.9219C33.7834 29.5558 34.4818 28.8574 34.4818 27.9959V27.8317C34.4818 26.9702 33.7834 26.2718 32.9219 26.2718Z" fill="#E4E4E4"/>
<path d="M32.9219 9.85193H6.48591C5.62441 9.85193 4.92603 10.5503 4.92603 11.4118V11.576C4.92603 12.4375 5.62441 13.1359 6.48591 13.1359H32.9219C33.7834 13.1359 34.4818 12.4375 34.4818 11.576V11.4118C34.4818 10.5503 33.7834 9.85193 32.9219 9.85193Z" fill="#E4E4E4"/>
</svg>
