<svg width="70" height="50" viewBox="0 0 110 72" fill="none" xmlns="http://www.w3.org/2000/svg">
<path d="M53.8171 1.92115V2.99642H80.6989H107.581V20.0215V37.0466H108.656H109.731L109.659 19.0179L109.552 1.02509L81.7024 0.917564L53.8171 0.845882V1.92115Z" fill="#E4E4E4"/>
<path d="M13.7097 23.2115C13.423 23.534 13.3154 25.3262 13.3871 28.6595L13.4946 33.6416L19.3369 33.8208C26.362 34.0358 26.2187 33.9642 26.2187 38.1219C26.2187 41.9211 26.0036 42.0645 21.129 42.0645C16.9713 42.0645 16.1828 41.7061 16.1828 39.8064C16.1828 38.9104 16.0753 38.8387 14.7491 38.8387H13.3154V40.3082C13.3154 42.2079 14.3907 43.9642 16.0394 44.7527C17.0789 45.2186 18.1541 45.3262 21.7742 45.2186L26.2545 45.1111L27.6882 43.6057L29.086 42.1004V38.3011C29.086 34.2867 28.7635 33.1756 27.2939 31.8495C26.6129 31.2401 25.8602 31.0968 21.4158 30.9534L16.362 30.7742L16.2545 28.3369L16.147 25.9355H21.9176H27.6523V24.3226V22.7097H20.8782C15.5377 22.7097 14.0323 22.8172 13.7097 23.2115Z" fill="#E4E4E4"/>
<path d="M44.9998 23.3548C42.7776 24.7527 42.3475 25.7204 42.3475 29.1254C42.3475 31.4193 42.4909 32.4588 42.921 33.0681C43.4945 33.8566 43.4945 33.9641 42.921 34.896C42.0249 36.4373 42.1324 41.4193 43.0643 42.9606C44.2113 44.8244 45.645 45.2903 50.2328 45.2903C54.8206 45.2903 56.2543 44.8244 57.4013 42.9606C58.369 41.4193 58.4407 36.2222 57.5446 34.9319C56.9712 34.1434 56.9712 34.0358 57.5446 33.1039C57.9389 32.3871 58.1181 31.2401 58.1181 29.0179V25.8996L56.7203 24.3943L55.2866 22.8889L50.6988 22.7814C46.6844 22.7097 45.9676 22.7814 44.9998 23.3548ZM54.6056 26.5448C55.4658 27.3333 55.5016 30.7742 54.6414 31.7419C53.817 32.6738 46.8636 32.7097 45.86 31.7778C45.0357 31.0251 44.964 27.871 45.7884 26.724C46.2902 26.0072 46.6127 25.9355 50.1253 25.9355C53.1719 25.9355 54.0679 26.043 54.6056 26.5448ZM54.6056 36.2222C55.4658 37.0107 55.5016 40.4516 54.6414 41.4193C53.817 42.3512 46.8636 42.3871 45.86 41.4552C45.0357 40.7025 44.964 37.5484 45.7884 36.4014C46.2902 35.6846 46.6127 35.6129 50.1253 35.6129C53.1719 35.6129 54.0679 35.7204 54.6056 36.2222Z" fill="#E4E4E4"/>
<path d="M71.3799 34V45.2903H72.7419C74.0681 45.2903 74.1756 45.1828 77.5089 40.6667L80.8781 36.043L84.2831 40.6667C87.5806 45.1828 87.6881 45.2903 89.0143 45.2903H90.3763V34V22.7097H88.9426H87.5089L87.4372 31.3477L87.3297 40.0215L84.9283 36.4014C83.5304 34.3226 82.491 32.3512 82.491 31.8495C82.491 31.0251 82.3476 30.9534 80.8781 30.9534C79.4086 30.9534 79.2652 31.0251 79.2652 31.8495C79.2652 32.3512 78.2258 34.3226 76.8638 36.4014L74.4265 40.0215L74.319 31.3477L74.2473 22.7097H72.8136H71.3799V34Z" fill="#E4E4E4"/>
<path d="M0.0537109 53.8925V71.8136H27.8315H55.6093V70.5591V69.3047H28.7275H1.84583V52.638V35.9713H0.949768H0.0537109V53.8925Z" fill="#E4E4E4"/>
</svg>
